<svg width="40" height="40" viewBox="0 0 40 40" fill="none" xmlns="http://www.w3.org/2000/svg">
<path d="M30.2 15.5c-.1 3.1 2.7 4.6 2.8 4.7-.1.4-1.5 5.1-4.9 10.1-2.9 4.3-5.9 8.6-10.7 8.7-4.7.1-6.2-2.8-11.6-2.8s-7.1 2.7-11.6 2.8c-4.7.1-8.1-4.7-11.1-9-6.1-8.7-10.8-24.6-4.5-35.4 3.1-5.4 8.7-8.8 14.7-8.9 4.6-.1 8.9 3.1 11.7 3.1 2.8 0 8.1-3.8 13.6-3.2 2.3.1 8.8.9 13 6.8-.3.2-7.8 4.5-7.7 13.4zm-8.9-26.2c2.4-2.9 4-6.9 3.6-10.9-3.5.1-7.7 2.3-10.2 5.2-2.2 2.6-4.2 6.7-3.7 10.6 3.9.3 7.9-2 10.3-4.9z" fill="white"/>
</svg>