<svg width="40" height="40" viewBox="0 0 40 40" fill="none" xmlns="http://www.w3.org/2000/svg">
<path d="M40 20C40 8.954 31.046 0 20 0S0 8.954 0 20c0 9.988 7.324 18.258 16.875 19.757V25.781H11.797V20h5.078v-4.406c0-5.016 2.988-7.781 7.555-7.781 2.188 0 4.477.391 4.477.391v4.922h-2.523c-2.484 0-3.259 1.543-3.259 3.125V20h5.547l-.887 5.781h-4.66v13.976C32.676 38.258 40 29.988 40 20z" fill="#1877F2"/>
<path d="M27.785 25.781L28.672 20h-5.547v-3.75c0-1.582.775-3.125 3.259-3.125h2.523V8.203s-2.289-.391-4.477-.391c-4.567 0-7.555 2.765-7.555 7.781V20h-5.078v5.781h5.078v13.976c1.016.16 2.055.243 3.125.243s2.109-.083 3.125-.243V25.781h4.66z" fill="white"/>
</svg>